<?xml version="1.0" encoding="utf-8"?>
<!-- Generator: Adobe Illustrator 21.0.0, SVG Export Plug-In . SVG Version: 6.00 Build 0)  -->
<svg version="1.1" id="Camada_1" xmlns="http://www.w3.org/2000/svg" xmlns:xlink="http://www.w3.org/1999/xlink" x="0px" y="0px"
	 viewBox="0 0 194.2 402" style="enable-background:new 0 0 194.2 402;" xml:space="preserve">
<style type="text/css">
	.st0{fill:none;}
	.st1{fill:#272822;}
</style>
<g>
	<path class="st0" d="M91.9,391.2l-1.9,4.9h4.9l-1.9-4.9c-0.2-0.4-0.3-0.9-0.6-1.6C92.3,390.2,92.1,390.7,91.9,391.2z"/>
	<path class="st0" d="M80.6,392c0-1-0.3-1.8-0.9-2.3s-1.6-0.7-3-0.7h-2.3v6H77c1.2,0,2-0.3,2.7-0.8C80.3,393.8,80.6,393,80.6,392z"
		/>
	<path class="st0" d="M64.4,393.6c0.6-0.4,0.9-1.1,0.9-2c0-0.9-0.3-1.6-1-2c-0.7-0.4-1.6-0.6-2.9-0.6h-2.8v5.2h3
		C62.9,394.2,63.8,394,64.4,393.6z"/>
	<path class="st0" d="M123.4,294.1c-2.1,0-3.7,0.7-4.9,2c-1.2,1.3-1.9,3.2-2,5.7h13.9c0-2.4-0.7-4.3-1.9-5.7
		C127.2,294.8,125.5,294.1,123.4,294.1z"/>
	<path class="st0" d="M34.8,290.6c-2,2.7-3,6.7-3,12c0,5.3,1,9.3,3,12c2,2.7,5,4,9,4c8,0,12-5.3,12-16c0-10.7-4-16-12-16
		C39.8,286.6,36.8,287.9,34.8,290.6z"/>
	<path class="st0" d="M61.6,395.1h-3v5.9h3.2c2.5,0,3.8-1,3.8-3.1C65.6,396,64.2,395.1,61.6,395.1z"/>
	<path class="st0" d="M162.4,347c-2.7,0-4.7,0.9-5.8,2.7c-1.2,1.8-1.8,4.6-1.8,8.3c0,3.7,0.6,6.5,1.8,8.3c1.2,1.9,3.2,2.8,5.9,2.8
		c2.7,0,4.6-0.9,5.8-2.8c1.2-1.9,1.8-4.7,1.8-8.4c0-3.7-0.6-6.4-1.8-8.3C167.1,347.9,165.1,347,162.4,347z"/>
	<path class="st0" d="M123.5,347c-2.7,0-4.7,0.9-5.8,2.7c-1.2,1.8-1.8,4.6-1.8,8.3c0,3.7,0.6,6.5,1.8,8.3c1.2,1.9,3.2,2.8,5.9,2.8
		c2.7,0,4.6-0.9,5.8-2.8c1.2-1.9,1.8-4.7,1.8-8.4c0-3.7-0.6-6.4-1.8-8.3C128.2,347.9,126.2,347,123.5,347z"/>
	<path class="st1" d="M27,284.4c-3.9,4.2-5.8,10.2-5.8,18.1s1.9,13.9,5.8,18.1c3.9,4.2,9.5,6.3,16.7,6.3s12.8-2.1,16.7-6.3
		c3.9-4.2,5.8-10.2,5.8-18.1c0-7.9-1.9-13.9-5.8-18.1c-3.9-4.2-9.4-6.3-16.7-6.3C36.5,278.2,30.9,280.3,27,284.4z M55.7,302.6
		c0,10.7-4,16-12,16c-4,0-7-1.3-9-4c-2-2.7-3-6.7-3-12c0-5.3,1-9.3,3-12c2-2.7,5-4,9-4C51.8,286.6,55.7,291.9,55.7,302.6z"/>
	<path class="st1" d="M139.6,303.5c0-5.1-1.4-9.2-4.3-12.1c-2.9-2.9-6.8-4.4-12-4.4c-5.4,0-9.6,1.7-12.6,5c-3,3.3-4.6,8-4.6,14.1
		c0,5.9,1.6,10.5,4.9,13.7c3.3,3.2,7.8,4.8,13.7,4.8c2.8,0,5.2-0.2,7.2-0.6c2-0.4,3.8-1.1,5.5-1.9v-7.6c-2.1,1-4.1,1.7-6.1,2.2
		c-1.9,0.5-4,0.7-6.2,0.7c-2.8,0-5-0.8-6.5-2.4c-1.6-1.6-2.4-3.8-2.5-6.6h23.4V303.5z M116.5,301.7c0.2-2.4,0.9-4.3,2-5.7
		c1.2-1.3,2.8-2,4.9-2c2.1,0,3.8,0.7,5,2c1.2,1.3,1.9,3.2,1.9,5.7H116.5z"/>
	<path class="st1" d="M152.8,306.9c0-4.3,0.6-7.3,1.8-9.2c1.2-1.8,3.2-2.8,6-2.8c2,0,3.5,0.7,4.4,2c0.9,1.3,1.4,3.3,1.4,5.9V324h9.9
		v-23.6c0-4.3-1.1-7.6-3.3-9.9c-2.2-2.3-5.4-3.4-9.6-3.4c-2.5,0-4.7,0.4-6.6,1.3c-1.9,0.9-3.5,2.2-4.6,4h-0.6l-1.3-4.6h-7.6V324h9.9
		V306.9z"/>
	<path class="st1" d="M19.8,348.6c-3.4-1.6-5.6-2.8-6.5-3.4c-0.9-0.6-1.6-1.3-2-2c-0.4-0.7-0.6-1.5-0.6-2.4c0-1.5,0.5-2.6,1.6-3.6
		c1-0.9,2.5-1.4,4.5-1.4c1.6,0,3.3,0.2,5,0.6c1.7,0.4,3.8,1.2,6.4,2.2l3.3-8c-2.5-1.1-4.9-1.9-7.2-2.5c-2.3-0.6-4.7-0.9-7.2-0.9
		c-5.1,0-9.2,1.2-12.1,3.7c-2.9,2.5-4.4,5.8-4.4,10.1c0,2.3,0.4,4.3,1.3,6c0.9,1.7,2.1,3.2,3.6,4.5c1.5,1.3,3.7,2.6,6.7,4
		c3.2,1.5,5.3,2.6,6.3,3.3c1,0.7,1.8,1.4,2.3,2.1c0.5,0.7,0.8,1.6,0.8,2.5c0,1.7-0.6,3-1.8,3.9c-1.2,0.9-2.9,1.3-5.2,1.3
		c-1.9,0-4-0.3-6.2-0.9c-2.3-0.6-5-1.6-8.3-3.1v9.6c4,1.9,8.6,2.9,13.8,2.9c5.6,0,10-1.3,13.2-3.8c3.2-2.5,4.7-6,4.7-10.4
		c0-3.2-0.8-5.8-2.5-8C27.5,353,24.3,350.8,19.8,348.6z"/>
	<path class="st1" d="M62.7,374.6v-8.7c-1.7,1.1-3.3,1.9-5,2.4c-1.7,0.5-3.5,0.8-5.4,0.8c-5.3,0-10.4-3.6-10.4-10.9
		c0-7.5,5.1-11.2,10.4-11.2c1.4,0,2.7,0.2,4.1,0.6c1.4,0.4,2.9,0.9,4.5,1.6l3-7.8c-3.4-1.7-7.3-2.5-11.6-2.5c-5.9,0-10.4,1.7-13.5,5
		c-3.1,3.3-4.7,8.2-4.7,14.5c0,12.7,5.8,19,17.3,19c2.5,0,4.7-0.2,6.3-0.6C59.5,376.3,61.1,375.6,62.7,374.6z"/>
	<path class="st1" d="M133.1,341.2c-2.7-1.5-5.9-2.3-9.4-2.3c-5.7,0-10.2,1.7-13.4,5c-3.2,3.4-4.8,8.1-4.8,14.2
		c0,3.9,0.7,7.3,2.2,10.2c1.5,2.9,3.6,5.2,6.3,6.7c2.7,1.6,5.9,2.3,9.4,2.3c5.7,0,10.1-1.7,13.3-5.1c3.2-3.4,4.8-8.1,4.8-14.2
		c0-3.9-0.7-7.3-2.2-10.2S135.8,342.7,133.1,341.2z M129.4,366.4c-1.2,1.9-3.1,2.8-5.8,2.8c-2.7,0-4.7-0.9-5.9-2.8
		c-1.2-1.9-1.8-4.7-1.8-8.3c0-3.7,0.6-6.5,1.8-8.3c1.2-1.8,3.1-2.7,5.8-2.7c2.7,0,4.7,0.9,5.9,2.8c1.2,1.8,1.8,4.6,1.8,8.3
		C131.2,361.7,130.6,364.5,129.4,366.4z"/>
	<path class="st1" d="M171.9,341.2c-2.7-1.5-5.9-2.3-9.4-2.3c-5.7,0-10.2,1.7-13.4,5c-3.2,3.4-4.8,8.1-4.8,14.2
		c0,3.9,0.7,7.3,2.2,10.2s3.6,5.2,6.3,6.7c2.7,1.6,5.9,2.3,9.4,2.3c5.7,0,10.1-1.7,13.3-5.1c3.2-3.4,4.8-8.1,4.8-14.2
		c0-3.9-0.7-7.3-2.2-10.2C176.8,344.9,174.7,342.7,171.9,341.2z M168.3,366.4c-1.2,1.9-3.1,2.8-5.8,2.8c-2.7,0-4.7-0.9-5.9-2.8
		c-1.2-1.9-1.8-4.7-1.8-8.3c0-3.7,0.6-6.5,1.8-8.3c1.2-1.8,3.1-2.7,5.8-2.7c2.7,0,4.7,0.9,5.9,2.8c1.2,1.8,1.8,4.6,1.8,8.3
		C170,361.7,169.5,364.5,168.3,366.4z"/>
	<rect x="184.1" y="325.6" class="st1" width="10.1" height="51.7"/>
	<path class="st1" d="M99.8,291.5c-2.4-3.3-5.8-5-10-5c-4.5,0-8,1.8-10.3,5.4H79l-1.4-4.7h-8v44.5h0h9.3h0l0-12.3h0.5
		c2.4,3.1,5.8,4.6,10,4.6c2.8,0,5.3-0.7,7.4-2.2c2.1-1.5,3.7-3.7,4.8-6.5c1.1-2.9,1.7-6.2,1.7-10.1
		C103.4,299.4,102.2,294.8,99.8,291.5z M88.3,315.9c-0.5,0.1-1.1,0.2-1.7,0.2c-2.5,0-4.3-0.8-5.5-2.5c-1.2-1.7-1.7-4.5-1.7-8.4v-1.1
		c0-3.5,0.6-5.9,1.8-7.4c0.3-0.4,0.6-0.7,0.9-0.9c1.1-0.9,2.6-1.3,4.4-1.3c2.3,0,4,0.9,5.1,2.7s1.6,4.5,1.6,8
		C93.3,311.4,91.6,315,88.3,315.9z"/>
	<path class="st1" d="M76.9,333.5h-7.4l0,42.8l9.3,0.1v-15c0-4.3,0.6-7.5,1.8-9.4c1.3-1.9,3.3-2.9,6.1-2.9c4,0,6,2.7,6,8v19.3h9
		v-21.8c0-4.4-1.1-7.8-3.4-10.1c-2.3-2.3-5.6-3.5-9.9-3.5c-4.9,0-7.4,1.9-9.6,5.5l0,0.1v-13H76.9"/>
	<g>
		<path class="st1" d="M63.4,394.7L63.4,394.7c0.9-0.2,1.6-0.5,2.1-1.1s0.7-1.2,0.7-2c0-1.2-0.4-2-1.2-2.6s-2-0.9-3.7-0.9h-3.7v13.7
			h4.2c1.5,0,2.7-0.3,3.5-1c0.8-0.7,1.3-1.6,1.3-2.9c0-0.9-0.3-1.7-0.8-2.2C65.3,395.2,64.5,394.8,63.4,394.7z M58.6,389h2.8
			c1.3,0,2.3,0.2,2.9,0.6c0.7,0.4,1,1.1,1,2c0,0.9-0.3,1.6-0.9,2c-0.6,0.4-1.5,0.6-2.8,0.6h-3V389z M61.8,401h-3.2v-5.9h3
			c2.7,0,4,0.9,4,2.8C65.6,399.9,64.3,401,61.8,401z"/>
		<path class="st1" d="M80.9,394.2c0.5-0.6,0.7-1.4,0.7-2.3c0-1.3-0.4-2.2-1.2-2.8c-0.8-0.6-2.1-0.9-3.8-0.9h-3.2v13.7h1v-5.9h3.4
			l3.5,5.9h1.1l-3.7-6.2C79.7,395.3,80.5,394.9,80.9,394.2z M77,395h-2.6v-6h2.3c1.4,0,2.4,0.2,3,0.7s0.9,1.2,0.9,2.3
			c0,1-0.3,1.8-1,2.3C79,394.8,78.1,395,77,395z"/>
		<path class="st1" d="M92.2,388.1l-5.5,13.7h1.1l1.9-4.8h5.5l1.9,4.8h1.1l-5.4-13.7H92.2z M94.9,396.1H90l1.9-4.9
			c0.2-0.5,0.4-1,0.6-1.6c0.2,0.7,0.4,1.2,0.6,1.6L94.9,396.1z"/>
		<path class="st1" d="M109.9,395.5c-0.5-0.3-1.3-0.7-2.4-1.1c-1-0.4-1.7-0.7-2.1-0.9c-0.4-0.3-0.7-0.5-0.9-0.9
			c-0.2-0.3-0.3-0.7-0.3-1.2c0-0.8,0.3-1.4,0.9-1.9c0.6-0.5,1.4-0.7,2.4-0.7c1,0,2.1,0.2,3.2,0.7l0.3-0.8c-1.1-0.5-2.3-0.7-3.6-0.7
			c-1.3,0-2.3,0.3-3.1,1c-0.8,0.6-1.2,1.5-1.2,2.5c0,0.9,0.3,1.7,0.8,2.2c0.5,0.6,1.5,1.1,2.9,1.6c1,0.3,1.7,0.6,2.2,0.9
			c0.5,0.3,0.8,0.6,1.1,0.9s0.3,0.8,0.3,1.3c0,0.8-0.3,1.5-1,2c-0.7,0.5-1.5,0.8-2.7,0.8c-1.5,0-2.8-0.2-3.8-0.6v1
			c0.9,0.4,2.2,0.6,3.8,0.6c1.4,0,2.5-0.3,3.3-1c0.8-0.7,1.3-1.6,1.3-2.7c0-0.6-0.1-1.2-0.4-1.6
			C110.8,396.3,110.5,395.9,109.9,395.5z"/>
		<rect x="118.2" y="388.2" class="st1" width="1" height="13.7"/>
		<polygon class="st1" points="127.8,400.9 127.8,388.2 126.8,388.2 126.8,401.8 134.3,401.8 134.3,400.9 		"/>
	</g>
	<g>
		<path class="st1" d="M19,81.3l0,165.8h14.2L33,231.9h4.1c2.1,0,3.9-1.5,4.2-3.6c0.2-2.4-1.6-4.4-4-4.4H33l0-3.4h40.8
			c2.1,0,3.9-1.5,4.2-3.6c0.2-2.4-1.6-4.4-4-4.4h-41l0-3.4h55.6c2.2,0,4-1.8,4-4c0-2.2-1.8-4-4-4H32.8l0-3.7h15.7c2.2,0,4-1.8,4-4
			s-1.8-4-4-4H32.7l0-3.7h35.6c2.1,0,3.9-1.5,4.2-3.6c0.2-2.4-1.6-4.4-4-4.4H32.7l0-4.3h59.1c2.1,0,3.9-1.5,4.2-3.6
			c0.2-2.4-1.6-4.4-4-4.4H32.6l0-3.4h14.8c2.1,0,3.9-1.5,4.2-3.6c0.2-2.4-1.6-4.4-4-4.4H32.5l0-3.4h41.8c2.1,0,3.9-1.5,4.2-3.6
			c0.2-2.4-1.6-4.4-4-4.4h-42l0-4h29c2.1,0,3.9-1.5,4.2-3.6c0.2-2.4-1.6-4.4-4-4.4H32.4l0-3.4H42c2.1,0,3.9-1.5,4.2-3.6
			c0.2-2.4-1.6-4.4-4-4.4h-9.8l0-4.3h33.3c2.2,0,4-1.8,4-4v0c0-2.2-1.8-4-4-4H32.2l0-3.4h58.2c2.2,0,4-1.8,4-4s-1.8-4-4-4H32.1
			l0-3.7H40c2.1,0,3.9-1.5,4.2-3.6c0.2-2.4-1.6-4.4-4-4.4h-7.9c0.1-1.3,0.2-2.5,0.3-3.7h28.6c2.2,0,4-1.8,4-4c0-2.2-1.8-4-4-4H33.8
			c0.3-1.3,0.6-2.6,0.9-3.8h8.4c2.2,0,4-1.8,4-4c0-2.2-1.8-4-4-4h-5.7c0.5-1.2,1-2.3,1.6-3.4h40.1c2.2,0,4-1.8,4-4c0-2.2-1.8-4-4-4
			H43.8c11.6-15.7,31-23.8,54.6-24.4V9.6h-7.7C51.1,9.6,19,41.7,19,81.3z"/>
		<path class="st1" d="M160,38.3L160,38.3C160,38.3,160,38.3,160,38.3c-2.2-2.9-4.6-5.7-7.2-8.2C126.1,1.9,101.4,0,101.4,0v9.6v15v0
			v12v211.1v0.3v25.2l53.5-25.7l19.4-0.1V81.3C174.3,65.2,169,50.3,160,38.3z M119.6,157.6l-7.4,3.6v-20.7l7.4-3.8v2.8v12V157.6z"/>
	</g>
</g>
</svg>
