<?xml version="1.0" encoding="utf-8"?>
<!-- Generator: Adobe Illustrator 21.0.0, SVG Export Plug-In . SVG Version: 6.00 Build 0)  -->
<svg version="1.1" id="Camada_1" xmlns="http://www.w3.org/2000/svg" xmlns:xlink="http://www.w3.org/1999/xlink" x="0px" y="0px"
	 viewBox="0 0 375 273.2" style="enable-background:new 0 0 375 273.2;" xml:space="preserve">
<style type="text/css">
	.st0{fill:#FFFFFF;}
</style>
<g>
	<g>
		<g>
			<g>
				<path class="st0" d="M223,140.5c0,8-2,14.1-5.9,18.4c-4,4.3-9.6,6.4-17,6.4s-13.1-2.1-17-6.4c-4-4.3-5.9-10.5-5.9-18.5
					c0-8,2-14.2,6-18.4c4-4.2,9.7-6.4,17.1-6.4c7.4,0,13.1,2.1,17,6.4C221.1,126.4,223,132.5,223,140.5z M187.8,140.5
					c0,5.4,1,9.5,3.1,12.2c2,2.7,5.1,4.1,9.2,4.1c8.2,0,12.3-5.4,12.3-16.3c0-10.9-4.1-16.3-12.2-16.3c-4.1,0-7.1,1.4-9.2,4.1
					C188.8,131.1,187.8,135.1,187.8,140.5z"/>
			</g>
			<g>
				<path class="st0" d="M282.7,163c-5.9,0-10.6-1.6-13.9-4.9c-3.3-3.3-5-7.9-5-13.9c0-6.2,1.5-11,4.6-14.4
					c3.1-3.4,7.4-5.1,12.8-5.1c5.2,0,9.3,1.5,12.2,4.5c2.9,3,4.4,7.1,4.4,12.3v4.9H274c0.1,2.9,1,5.1,2.5,6.7
					c1.6,1.6,3.8,2.4,6.7,2.4c2.2,0,4.3-0.2,6.3-0.7s4.1-1.2,6.2-2.2v7.8c-1.8,0.9-3.6,1.5-5.6,2C288.1,162.8,285.6,163,282.7,163z
					 M281.3,131.9c-2.1,0-3.8,0.7-5,2c-1.2,1.4-1.9,3.3-2.1,5.8h14.1c0-2.5-0.7-4.4-1.9-5.8C285.1,132.6,283.4,131.9,281.3,131.9z"
					/>
			</g>
			<g>
				<path class="st0" d="M335.3,162.3h-10.1v-21.6c0-2.7-0.5-4.7-1.4-6c-0.9-1.3-2.5-2-4.5-2c-2.8,0-4.9,0.9-6.1,2.8
					c-1.3,1.9-1.9,5-1.9,9.4v17.4h-10.1v-36.9h7.7l1.4,4.7h0.6c1.1-1.8,2.7-3.1,4.6-4s4.2-1.4,6.7-1.4c4.3,0,7.6,1.2,9.8,3.5
					c2.2,2.3,3.3,5.7,3.3,10.1V162.3z"/>
			</g>
		</g>
		<g>
			<g>
				<path class="st0" d="M209.3,208c0,4.5-1.6,8-4.8,10.6c-3.2,2.6-7.7,3.9-13.4,3.9c-5.3,0-10-1-14-3v-9.8c3.3,1.5,6.2,2.5,8.5,3.1
					c2.3,0.6,4.4,0.9,6.3,0.9c2.3,0,4.1-0.4,5.3-1.3c1.2-0.9,1.8-2.2,1.8-3.9c0-1-0.3-1.8-0.8-2.6c-0.5-0.8-1.3-1.5-2.4-2.2
					c-1-0.7-3.2-1.8-6.4-3.4c-3-1.4-5.3-2.8-6.8-4.1c-1.5-1.3-2.7-2.8-3.6-4.6c-0.9-1.7-1.4-3.8-1.4-6.1c0-4.4,1.5-7.8,4.5-10.3
					s7.1-3.8,12.3-3.8c2.6,0,5,0.3,7.4,0.9c2.3,0.6,4.8,1.5,7.3,2.6l-3.4,8.2c-2.6-1.1-4.8-1.8-6.6-2.3c-1.7-0.4-3.4-0.6-5.1-0.6
					c-2,0-3.5,0.5-4.6,1.4c-1.1,0.9-1.6,2.1-1.6,3.6c0,0.9,0.2,1.7,0.6,2.4c0.4,0.7,1.1,1.4,2,2c0.9,0.6,3.2,1.8,6.7,3.5
					c4.6,2.2,7.8,4.4,9.5,6.7C208.5,202,209.3,204.8,209.3,208z"/>
			</g>
			<g>
				<path class="st0" d="M229.5,222.4c-11.8,0-17.7-6.5-17.7-19.4c0-6.4,1.6-11.3,4.8-14.7c3.2-3.4,7.8-5.1,13.8-5.1
					c4.4,0,8.3,0.9,11.8,2.6l-3,8c-1.6-0.7-3.1-1.2-4.5-1.6c-1.4-0.4-2.8-0.6-4.2-0.6c-5.4,0-10.6,3.8-10.6,11.4
					c0,7.4,5.2,11.1,10.6,11.1c2,0,3.8-0.3,5.5-0.8s3.4-1.4,5.1-2.5v8.8c-1.7,1.1-3.4,1.8-5.1,2.2
					C234.3,222.2,232.1,222.4,229.5,222.4z"/>
			</g>
			<g>
				<path class="st0" d="M321.3,203.7c0,6.2-1.6,11-4.9,14.5c-3.3,3.5-7.8,5.2-13.6,5.2c-3.6,0-6.8-0.8-9.6-2.4
					c-2.8-1.6-4.9-3.9-6.4-6.9c-1.5-3-2.2-6.5-2.2-10.4c0-6.2,1.6-11,4.8-14.4c3.2-3.4,7.8-5.1,13.6-5.1c3.6,0,6.8,0.8,9.6,2.4
					c2.8,1.6,4.9,3.8,6.4,6.8C320.6,196.3,321.3,199.8,321.3,203.7z M295.2,203.7c0,3.7,0.6,6.6,1.8,8.5c1.2,1.9,3.2,2.9,6,2.9
					c2.8,0,4.7-1,5.9-2.9c1.2-1.9,1.8-4.7,1.8-8.5c0-3.7-0.6-6.6-1.8-8.4c-1.2-1.9-3.2-2.8-6-2.8c-2.8,0-4.7,0.9-6,2.8
					C295.8,197.1,295.2,200,295.2,203.7z"/>
			</g>
			<g>
				<path class="st0" d="M360.9,203.7c0,6.2-1.6,11-4.9,14.5c-3.3,3.5-7.8,5.2-13.6,5.2c-3.6,0-6.8-0.8-9.6-2.4
					c-2.8-1.6-4.9-3.9-6.4-6.9c-1.5-3-2.2-6.5-2.2-10.4c0-6.2,1.6-11,4.8-14.4c3.2-3.4,7.8-5.1,13.6-5.1c3.6,0,6.8,0.8,9.6,2.4
					c2.8,1.6,4.9,3.8,6.4,6.8C360.2,196.3,360.9,199.8,360.9,203.7z M334.8,203.7c0,3.7,0.6,6.6,1.8,8.5c1.2,1.9,3.2,2.9,6,2.9
					c2.8,0,4.7-1,5.9-2.9c1.2-1.9,1.8-4.7,1.8-8.5c0-3.7-0.6-6.6-1.8-8.4c-1.2-1.9-3.2-2.8-6-2.8c-2.8,0-4.7,0.9-6,2.8
					C335.4,197.1,334.8,200,334.8,203.7z"/>
			</g>
			<g>
				<path class="st0" d="M375,222.4h-10.3v-52.7H375V222.4z"/>
			</g>
		</g>
		<g>
			<g>
				<path class="st0" d="M267.3,186.3c-5,0-7.5,1.9-9.8,5.6l0,0.1v-17.2h-9.5l0,47.6l9.5,0.1v-15.3c0-4.4,0.6-7.6,1.9-9.6
					c1.3-2,3.4-2.9,6.3-2.9c4.1,0,6.1,2.7,6.1,8.2v19.6h9.2v-22.2c0-4.5-1.2-7.9-3.5-10.3C275.1,187.5,271.8,186.3,267.3,186.3z"/>
			</g>
			<g>
				<path class="st0" d="M257.2,129.2c-2.5-3.4-5.9-5.1-10.2-5.1c-4.6,0-8.1,1.8-10.5,5.5H236l-1.4-4.8h-8.2v45.4h0h9.5h0l0-12.5
					h0.5c2.5,3.1,5.9,4.7,10.2,4.7c2.9,0,5.4-0.8,7.5-2.3c2.1-1.5,3.8-3.7,4.9-6.6c1.2-2.9,1.7-6.3,1.7-10.3
					C260.9,137.3,259.6,132.6,257.2,129.2z M243.8,154.3c-2.6,0-4.4-0.9-5.6-2.6c-1.2-1.7-1.8-4.6-1.8-8.5v-1.1c0-3.5,0.6-6,1.8-7.6
					c1.1-1.5,3-2.3,5.4-2.3c2.4,0,4.1,0.9,5.2,2.7c1.1,1.8,1.7,4.5,1.7,8.2C250.6,150.6,248.3,154.3,243.8,154.3z"/>
			</g>
		</g>
		<g>
			<path class="st0" d="M179,233.9h3.8c1.7,0,3,0.3,3.8,0.9c0.8,0.6,1.2,1.5,1.2,2.6c0,0.8-0.2,1.5-0.7,2c-0.5,0.5-1.2,0.9-2.2,1
				v0.1c1.1,0.2,1.9,0.5,2.5,1.1c0.5,0.5,0.8,1.3,0.8,2.2c0,1.3-0.4,2.3-1.3,3c-0.9,0.7-2.1,1-3.6,1H179V233.9z M180,240.1h3.1
				c1.3,0,2.3-0.2,2.9-0.7c0.6-0.4,0.9-1.1,0.9-2s-0.3-1.6-1-2c-0.7-0.4-1.7-0.6-3-0.6H180V240.1z M180,240.9v6h3.3
				c2.6,0,3.9-1,3.9-3.1c0-1.9-1.4-2.9-4.1-2.9H180z"/>
			<path class="st0" d="M196.1,241.7v6.1h-1v-13.9h3.3c1.7,0,3,0.3,3.8,1c0.8,0.6,1.2,1.6,1.2,2.9c0,0.9-0.2,1.7-0.7,2.4
				c-0.5,0.6-1.2,1.1-2.2,1.4l3.8,6.3h-1.2l-3.6-6.1H196.1z M196.1,240.9h2.7c1.2,0,2.1-0.3,2.7-0.8c0.6-0.5,1-1.3,1-2.3
				c0-1.1-0.3-1.8-1-2.3c-0.6-0.5-1.7-0.7-3.1-0.7h-2.3V240.9z"/>
			<path class="st0" d="M217.3,242.9h-5.7l-1.9,4.9h-1.1l5.6-14h0.6l5.5,14h-1.1L217.3,242.9z M212,242h5l-1.9-5
				c-0.2-0.4-0.3-0.9-0.6-1.6c-0.2,0.6-0.4,1.2-0.6,1.7L212,242z"/>
			<path class="st0" d="M233.9,244.2c0,1.2-0.4,2.1-1.3,2.8c-0.9,0.7-2,1-3.4,1c-1.7,0-3-0.2-3.9-0.6v-1c1,0.4,2.3,0.6,3.8,0.6
				c1.1,0,2-0.3,2.7-0.8c0.7-0.5,1-1.2,1-2.1c0-0.5-0.1-1-0.3-1.3c-0.2-0.3-0.6-0.7-1.1-0.9c-0.5-0.3-1.2-0.6-2.2-0.9
				c-1.4-0.5-2.4-1-2.9-1.6s-0.8-1.3-0.8-2.3c0-1,0.4-1.9,1.2-2.5c0.8-0.7,1.9-1,3.1-1c1.3,0,2.5,0.2,3.7,0.7l-0.4,0.8
				c-1.2-0.5-2.3-0.7-3.3-0.7c-1,0-1.8,0.2-2.5,0.7c-0.6,0.5-0.9,1.1-0.9,1.9c0,0.5,0.1,0.9,0.3,1.3c0.2,0.3,0.5,0.6,0.9,0.9
				c0.4,0.3,1.2,0.6,2.2,0.9c1.1,0.4,1.9,0.7,2.4,1.1c0.5,0.4,0.9,0.8,1.2,1.2C233.8,243,233.9,243.6,233.9,244.2z"/>
			<path class="st0" d="M240.7,247.8v-13.9h1v13.9H240.7z"/>
			<path class="st0" d="M249.5,247.8v-13.9h1v13h6.6v0.9H249.5z"/>
		</g>
	</g>
	<g>
		<path class="st0" d="M0,81.3l0,165.8h14.2l-0.1-15.2h4.1c2.1,0,3.9-1.5,4.2-3.6c0.2-2.4-1.6-4.4-4-4.4H14l0-3.4h40.8
			c2.1,0,3.9-1.5,4.2-3.6c0.2-2.4-1.6-4.4-4-4.4h-41l0-3.4h55.6c2.2,0,4-1.8,4-4c0-2.2-1.8-4-4-4H13.9l0-3.7h15.7c2.2,0,4-1.8,4-4
			s-1.8-4-4-4H13.8l0-3.7h35.6c2.1,0,3.9-1.5,4.2-3.6c0.2-2.4-1.6-4.4-4-4.4H13.7l0-4.3h59.1c2.1,0,3.9-1.5,4.2-3.6
			c0.2-2.4-1.6-4.4-4-4.4H13.6l0-3.4h14.8c2.1,0,3.9-1.5,4.2-3.6c0.2-2.4-1.6-4.4-4-4.4H13.6l0-3.4h41.8c2.1,0,3.9-1.5,4.2-3.6
			c0.2-2.4-1.6-4.4-4-4.4h-42l0-4h29c2.1,0,3.9-1.5,4.2-3.6c0.2-2.4-1.6-4.4-4-4.4H13.4l0-3.4H23c2.1,0,3.9-1.5,4.2-3.6
			c0.2-2.4-1.6-4.4-4-4.4h-9.8l0-4.3h33.3c2.2,0,4-1.8,4-4v0c0-2.2-1.8-4-4-4H13.3l0-3.4h58.2c2.2,0,4-1.8,4-4s-1.8-4-4-4H13.2
			l0-3.7h7.9c2.1,0,3.9-1.5,4.2-3.6c0.2-2.4-1.6-4.4-4-4.4h-7.9c0.1-1.3,0.2-2.5,0.3-3.7h28.6c2.2,0,4-1.8,4-4c0-2.2-1.8-4-4-4H14.8
			c0.3-1.3,0.6-2.6,0.9-3.8h8.4c2.2,0,4-1.8,4-4c0-2.2-1.8-4-4-4h-5.7c0.5-1.2,1-2.3,1.6-3.4h40.1c2.2,0,4-1.8,4-4c0-2.2-1.8-4-4-4
			H24.9c11.6-15.7,31-23.8,54.6-24.4V9.6h-7.7C32.1,9.6,0,41.7,0,81.3z"/>
		<path class="st0" d="M141.1,38.3L141.1,38.3C141,38.3,141,38.3,141.1,38.3c-2.2-2.9-4.6-5.7-7.2-8.2C107.1,1.9,82.5,0,82.5,0v9.6
			v15v0v12v211.1v0.3v25.2l53.5-25.7l19.4-0.1V81.3C155.4,65.2,150,50.3,141.1,38.3z M100.7,157.6l-7.4,3.6v-20.7l7.4-3.8v2.8v12
			V157.6z"/>
	</g>
</g>
</svg>
